<svg xmlns="http://www.w3.org/2000/svg" viewBox="0 0 260 900" width="260" height="900">
  <!-- Vista Trasera: marco de referencia generico, 45U. -->
  <!-- Sin componentes hardcodeados: cada fila es solo un slot U vacio. -->
  <!-- El Rack Builder renderiza el contenido real dinamicamente (ver -->
  <!-- features/rack-builder/RackElevationView.tsx), a partir de la -->
  <!-- plantilla y la instancia de cada rack. -->
  <rect x="0" y="0" width="260" height="900" fill="#0e1216" />
  <g><text x="28" y="13.0" text-anchor="end" font-family="monospace" font-size="9" fill="#8994a3">U45</text><rect x="34" y="0" width="222" height="18" rx="2" fill="transparent" stroke="#2a323c" stroke-dasharray="2 2" /></g>
  <g><text x="28" y="33.0" text-anchor="end" font-family="monospace" font-size="9" fill="#8994a3">U44</text><rect x="34" y="20" width="222" height="18" rx="2" fill="transparent" stroke="#2a323c" stroke-dasharray="2 2" /></g>
  <g><text x="28" y="53.0" text-anchor="end" font-family="monospace" font-size="9" fill="#8994a3">U43</text><rect x="34" y="40" width="222" height="18" rx="2" fill="transparent" stroke="#2a323c" stroke-dasharray="2 2" /></g>
  <g><text x="28" y="73.0" text-anchor="end" font-family="monospace" font-size="9" fill="#8994a3">U42</text><rect x="34" y="60" width="222" height="18" rx="2" fill="transparent" stroke="#2a323c" stroke-dasharray="2 2" /></g>
  <g><text x="28" y="93.0" text-anchor="end" font-family="monospace" font-size="9" fill="#8994a3">U41</text><rect x="34" y="80" width="222" height="18" rx="2" fill="transparent" stroke="#2a323c" stroke-dasharray="2 2" /></g>
  <g><text x="28" y="113.0" text-anchor="end" font-family="monospace" font-size="9" fill="#8994a3">U40</text><rect x="34" y="100" width="222" height="18" rx="2" fill="transparent" stroke="#2a323c" stroke-dasharray="2 2" /></g>
  <g><text x="28" y="133.0" text-anchor="end" font-family="monospace" font-size="9" fill="#8994a3">U39</text><rect x="34" y="120" width="222" height="18" rx="2" fill="transparent" stroke="#2a323c" stroke-dasharray="2 2" /></g>
  <g><text x="28" y="153.0" text-anchor="end" font-family="monospace" font-size="9" fill="#8994a3">U38</text><rect x="34" y="140" width="222" height="18" rx="2" fill="transparent" stroke="#2a323c" stroke-dasharray="2 2" /></g>
  <g><text x="28" y="173.0" text-anchor="end" font-family="monospace" font-size="9" fill="#8994a3">U37</text><rect x="34" y="160" width="222" height="18" rx="2" fill="transparent" stroke="#2a323c" stroke-dasharray="2 2" /></g>
  <g><text x="28" y="193.0" text-anchor="end" font-family="monospace" font-size="9" fill="#8994a3">U36</text><rect x="34" y="180" width="222" height="18" rx="2" fill="transparent" stroke="#2a323c" stroke-dasharray="2 2" /></g>
  <g><text x="28" y="213.0" text-anchor="end" font-family="monospace" font-size="9" fill="#8994a3">U35</text><rect x="34" y="200" width="222" height="18" rx="2" fill="transparent" stroke="#2a323c" stroke-dasharray="2 2" /></g>
  <g><text x="28" y="233.0" text-anchor="end" font-family="monospace" font-size="9" fill="#8994a3">U34</text><rect x="34" y="220" width="222" height="18" rx="2" fill="transparent" stroke="#2a323c" stroke-dasharray="2 2" /></g>
  <g><text x="28" y="253.0" text-anchor="end" font-family="monospace" font-size="9" fill="#8994a3">U33</text><rect x="34" y="240" width="222" height="18" rx="2" fill="transparent" stroke="#2a323c" stroke-dasharray="2 2" /></g>
  <g><text x="28" y="273.0" text-anchor="end" font-family="monospace" font-size="9" fill="#8994a3">U32</text><rect x="34" y="260" width="222" height="18" rx="2" fill="transparent" stroke="#2a323c" stroke-dasharray="2 2" /></g>
  <g><text x="28" y="293.0" text-anchor="end" font-family="monospace" font-size="9" fill="#8994a3">U31</text><rect x="34" y="280" width="222" height="18" rx="2" fill="transparent" stroke="#2a323c" stroke-dasharray="2 2" /></g>
  <g><text x="28" y="313.0" text-anchor="end" font-family="monospace" font-size="9" fill="#8994a3">U30</text><rect x="34" y="300" width="222" height="18" rx="2" fill="transparent" stroke="#2a323c" stroke-dasharray="2 2" /></g>
  <g><text x="28" y="333.0" text-anchor="end" font-family="monospace" font-size="9" fill="#8994a3">U29</text><rect x="34" y="320" width="222" height="18" rx="2" fill="transparent" stroke="#2a323c" stroke-dasharray="2 2" /></g>
  <g><text x="28" y="353.0" text-anchor="end" font-family="monospace" font-size="9" fill="#8994a3">U28</text><rect x="34" y="340" width="222" height="18" rx="2" fill="transparent" stroke="#2a323c" stroke-dasharray="2 2" /></g>
  <g><text x="28" y="373.0" text-anchor="end" font-family="monospace" font-size="9" fill="#8994a3">U27</text><rect x="34" y="360" width="222" height="18" rx="2" fill="transparent" stroke="#2a323c" stroke-dasharray="2 2" /></g>
  <g><text x="28" y="393.0" text-anchor="end" font-family="monospace" font-size="9" fill="#8994a3">U26</text><rect x="34" y="380" width="222" height="18" rx="2" fill="transparent" stroke="#2a323c" stroke-dasharray="2 2" /></g>
  <g><text x="28" y="413.0" text-anchor="end" font-family="monospace" font-size="9" fill="#8994a3">U25</text><rect x="34" y="400" width="222" height="18" rx="2" fill="transparent" stroke="#2a323c" stroke-dasharray="2 2" /></g>
  <g><text x="28" y="433.0" text-anchor="end" font-family="monospace" font-size="9" fill="#8994a3">U24</text><rect x="34" y="420" width="222" height="18" rx="2" fill="transparent" stroke="#2a323c" stroke-dasharray="2 2" /></g>
  <g><text x="28" y="453.0" text-anchor="end" font-family="monospace" font-size="9" fill="#8994a3">U23</text><rect x="34" y="440" width="222" height="18" rx="2" fill="transparent" stroke="#2a323c" stroke-dasharray="2 2" /></g>
  <g><text x="28" y="473.0" text-anchor="end" font-family="monospace" font-size="9" fill="#8994a3">U22</text><rect x="34" y="460" width="222" height="18" rx="2" fill="transparent" stroke="#2a323c" stroke-dasharray="2 2" /></g>
  <g><text x="28" y="493.0" text-anchor="end" font-family="monospace" font-size="9" fill="#8994a3">U21</text><rect x="34" y="480" width="222" height="18" rx="2" fill="transparent" stroke="#2a323c" stroke-dasharray="2 2" /></g>
  <g><text x="28" y="513.0" text-anchor="end" font-family="monospace" font-size="9" fill="#8994a3">U20</text><rect x="34" y="500" width="222" height="18" rx="2" fill="transparent" stroke="#2a323c" stroke-dasharray="2 2" /></g>
  <g><text x="28" y="533.0" text-anchor="end" font-family="monospace" font-size="9" fill="#8994a3">U19</text><rect x="34" y="520" width="222" height="18" rx="2" fill="transparent" stroke="#2a323c" stroke-dasharray="2 2" /></g>
  <g><text x="28" y="553.0" text-anchor="end" font-family="monospace" font-size="9" fill="#8994a3">U18</text><rect x="34" y="540" width="222" height="18" rx="2" fill="transparent" stroke="#2a323c" stroke-dasharray="2 2" /></g>
  <g><text x="28" y="573.0" text-anchor="end" font-family="monospace" font-size="9" fill="#8994a3">U17</text><rect x="34" y="560" width="222" height="18" rx="2" fill="transparent" stroke="#2a323c" stroke-dasharray="2 2" /></g>
  <g><text x="28" y="593.0" text-anchor="end" font-family="monospace" font-size="9" fill="#8994a3">U16</text><rect x="34" y="580" width="222" height="18" rx="2" fill="transparent" stroke="#2a323c" stroke-dasharray="2 2" /></g>
  <g><text x="28" y="613.0" text-anchor="end" font-family="monospace" font-size="9" fill="#8994a3">U15</text><rect x="34" y="600" width="222" height="18" rx="2" fill="transparent" stroke="#2a323c" stroke-dasharray="2 2" /></g>
  <g><text x="28" y="633.0" text-anchor="end" font-family="monospace" font-size="9" fill="#8994a3">U14</text><rect x="34" y="620" width="222" height="18" rx="2" fill="transparent" stroke="#2a323c" stroke-dasharray="2 2" /></g>
  <g><text x="28" y="653.0" text-anchor="end" font-family="monospace" font-size="9" fill="#8994a3">U13</text><rect x="34" y="640" width="222" height="18" rx="2" fill="transparent" stroke="#2a323c" stroke-dasharray="2 2" /></g>
  <g><text x="28" y="673.0" text-anchor="end" font-family="monospace" font-size="9" fill="#8994a3">U12</text><rect x="34" y="660" width="222" height="18" rx="2" fill="transparent" stroke="#2a323c" stroke-dasharray="2 2" /></g>
  <g><text x="28" y="693.0" text-anchor="end" font-family="monospace" font-size="9" fill="#8994a3">U11</text><rect x="34" y="680" width="222" height="18" rx="2" fill="transparent" stroke="#2a323c" stroke-dasharray="2 2" /></g>
  <g><text x="28" y="713.0" text-anchor="end" font-family="monospace" font-size="9" fill="#8994a3">U10</text><rect x="34" y="700" width="222" height="18" rx="2" fill="transparent" stroke="#2a323c" stroke-dasharray="2 2" /></g>
  <g><text x="28" y="733.0" text-anchor="end" font-family="monospace" font-size="9" fill="#8994a3">U9</text><rect x="34" y="720" width="222" height="18" rx="2" fill="transparent" stroke="#2a323c" stroke-dasharray="2 2" /></g>
  <g><text x="28" y="753.0" text-anchor="end" font-family="monospace" font-size="9" fill="#8994a3">U8</text><rect x="34" y="740" width="222" height="18" rx="2" fill="transparent" stroke="#2a323c" stroke-dasharray="2 2" /></g>
  <g><text x="28" y="773.0" text-anchor="end" font-family="monospace" font-size="9" fill="#8994a3">U7</text><rect x="34" y="760" width="222" height="18" rx="2" fill="transparent" stroke="#2a323c" stroke-dasharray="2 2" /></g>
  <g><text x="28" y="793.0" text-anchor="end" font-family="monospace" font-size="9" fill="#8994a3">U6</text><rect x="34" y="780" width="222" height="18" rx="2" fill="transparent" stroke="#2a323c" stroke-dasharray="2 2" /></g>
  <g><text x="28" y="813.0" text-anchor="end" font-family="monospace" font-size="9" fill="#8994a3">U5</text><rect x="34" y="800" width="222" height="18" rx="2" fill="transparent" stroke="#2a323c" stroke-dasharray="2 2" /></g>
  <g><text x="28" y="833.0" text-anchor="end" font-family="monospace" font-size="9" fill="#8994a3">U4</text><rect x="34" y="820" width="222" height="18" rx="2" fill="transparent" stroke="#2a323c" stroke-dasharray="2 2" /></g>
  <g><text x="28" y="853.0" text-anchor="end" font-family="monospace" font-size="9" fill="#8994a3">U3</text><rect x="34" y="840" width="222" height="18" rx="2" fill="transparent" stroke="#2a323c" stroke-dasharray="2 2" /></g>
  <g><text x="28" y="873.0" text-anchor="end" font-family="monospace" font-size="9" fill="#8994a3">U2</text><rect x="34" y="860" width="222" height="18" rx="2" fill="transparent" stroke="#2a323c" stroke-dasharray="2 2" /></g>
  <g><text x="28" y="893.0" text-anchor="end" font-family="monospace" font-size="9" fill="#8994a3">U1</text><rect x="34" y="880" width="222" height="18" rx="2" fill="transparent" stroke="#2a323c" stroke-dasharray="2 2" /></g>
</svg>
